<?xml version="1.0" encoding="utf-8"?>
<!-- Generator: Adobe Illustrator 28.2.0, SVG Export Plug-In . SVG Version: 6.00 Build 0)  -->
<svg version="1.1" id="Calque_1" xmlns="http://www.w3.org/2000/svg" xmlns:xlink="http://www.w3.org/1999/xlink" x="0px" y="0px"
	 viewBox="0 0 1024 1024" style="enable-background:new 0 0 1024 1024;" xml:space="preserve">
<style type="text/css">
	.st0{fill:#330000;}
	.st1{fill:#FF9A00;}
</style>
<path class="st0" d="M260.9,132.8h502.3c76.2,0,137.7,61.6,137.7,137.7v482.8c0,76.2-61.6,137.7-137.7,137.7H260.9
	c-76.2,0-137.7-61.6-137.7-137.7V270.6C123.1,194.4,184.7,132.8,260.9,132.8z"/>
<g>
	<path class="st1" d="M500,587.8H379.5L354.8,664c-0.6,2.9-3.2,4.9-6.2,4.5h-60.9c-3.6,0-4.5-1.9-3.6-5.8l104.3-300.4
		c1-3.2,1.9-6.8,3.2-10.7c1.3-6.8,1.9-13.9,1.9-21.1c-0.3-1.6,1-3.2,2.6-3.6h83.9c2.6,0,3.9,1,4.2,2.6l118.3,333.8
		c1,3.6,0,5.2-3.2,5.2h-67.7c-2.3,0.3-4.5-1.3-5.2-3.6L500,587.8z M398.3,522h82.3c-1.9-6.8-4.5-14.9-7.5-23.3
		c-2.9-8.7-5.8-18.1-8.7-27.9c-3.2-10-6.2-19.8-9.4-29.8c-3.2-10-6.2-19.4-8.7-28.8c-2.6-9.1-4.9-17.5-7.1-25.3h-0.6
		c-2.9,13.9-6.5,27.9-11,41.8c-4.9,15.6-9.7,31.8-14.9,48C408,493.2,403.1,508.4,398.3,522L398.3,522z M673.4,382.4
		c-10.7,0.3-21.1-3.9-28.8-11.3c-7.5-8.1-11.3-18.8-11-29.8c-0.3-11,3.9-21.4,11.7-28.8c7.8-7.5,18.1-11.3,28.8-11.3
		c12.6,0,22.4,3.9,29.5,11.3c7.1,7.8,11,18.1,10.7,28.8c0.3,11-3.6,21.7-11.3,29.8C695.4,378.8,684.4,383,673.4,382.4L673.4,382.4z
		 M637.1,663.7V414.1c0-3.2,1.3-4.5,4.2-4.5h64.2c2.9,0,4.2,1.6,4.2,4.5v249.5c0,3.6-1.3,5.2-4.2,5.2h-63.5
		C638.7,668.8,637.1,666.9,637.1,663.7z"/>
</g>
</svg>
