<?xml version="1.0" encoding="UTF-8"?>
<svg id="Calque_1" data-name="Calque 1" xmlns="http://www.w3.org/2000/svg" viewBox="0 0 1112.87 1075.3">
  <defs>
    <style>
      .cls-1 {
        fill: #fff;
      }

      .cls-1, .cls-2 {
        stroke-width: 0px;
      }

      .cls-2 {
        fill: #1769ff;
      }
    </style>
  </defs>
  <rect class="cls-2" width="1112.87" height="1075.3"/>
  <path class="cls-1" d="M476.61,508.25s69.56-5.16,69.56-86.73-56.91-121.39-129-121.39h-237.21v455.85h237.21s144.81,4.57,144.81-134.55c0,0,6.31-113.19-85.37-113.19h0ZM400.1,381.15h17.07s32.24,0,32.24,47.43-18.96,54.3-40.47,54.3h-124.47v-101.73h115.62ZM410.47,674.97h-125.99v-121.82h132.69s48.06-.63,48.06,62.6c0,53.32-35.89,58.81-54.76,59.22h0ZM755.11,416.11c-175.31,0-175.15,175.15-175.15,175.15,0,0-12.03,174.25,175.15,174.25,0,0,155.98,8.91,155.98-121.22h-80.22s2.68,49-73.09,49c0,0-80.23,5.38-80.23-79.31h236.21s25.85-197.88-158.66-197.88h0ZM676.67,553.14s9.8-70.26,80.22-70.26,69.53,70.26,69.53,70.26h-149.75ZM845.1,383.12h-188.07v-56.13h188.07v56.13h0Z"/>
</svg>