<?xml version="1.0" encoding="utf-8"?>
<!-- Generator: Adobe Illustrator 28.2.0, SVG Export Plug-In . SVG Version: 6.00 Build 0)  -->
<svg version="1.1" id="Calque_1" xmlns="http://www.w3.org/2000/svg" xmlns:xlink="http://www.w3.org/1999/xlink" x="0px" y="0px"
	 viewBox="0 0 1024 1024" style="enable-background:new 0 0 1024 1024;" xml:space="preserve">
<style type="text/css">
	.st0{fill:#0091E2;}
</style>
<g>
	<path class="st0" d="M883.8,446.5c-2.1-1.7-21.1-16-61.9-16c-10.6,0-21.5,1-32,2.8c-7.7-53.1-52.4-78.8-54.2-80.2l-10.9-6.3
		l-7,10.1c-8.8,13.5-15.5,28.8-19.3,44.4c-7.4,30.2-2.8,58.7,12.7,83c-18.6,10.4-48.9,12.8-55.2,13.2H156.5
		c-13,0-23.6,10.4-23.6,23.3c-0.7,43.1,6.7,86.1,21.8,126.7c17.2,44.4,42.9,77.4,76,97.6c37.3,22.6,98.1,35.4,166.7,35.4
		c30.9,0,61.9-2.8,92.5-8.3c42.6-7.6,83.4-22.2,121-43.4c30.8-17.7,58.6-40.2,82.3-66.7c39.7-44.1,63.3-93.4,80.5-137.2h7
		c43.3,0,70-17,84.8-31.6c9.8-9,17.2-20.1,22.5-32.6l3.2-9L883.8,446.5z"/>
	<path class="st0" d="M202.9,483.4h66.8c3.2,0,6-2.4,6-5.9v-59c0-3.1-2.5-5.9-6-5.9h-66.8c-3.2,0-6,2.4-6,5.9v59
		C197.3,480.9,199.7,483.4,202.9,483.4L202.9,483.4z M295,483.4h66.8c3.2,0,6-2.4,6-5.9v-59c0-3.1-2.5-5.9-6-5.9H295
		c-3.2,0-6,2.4-6,5.9v59C289.4,480.9,291.9,483.4,295,483.4 M388.9,483.4h66.8c3.2,0,6-2.4,6-5.9v-59c0-3.1-2.5-5.9-6-5.9h-66.8
		c-3.2,0-6,2.4-6,5.9v59C383,480.9,385.4,483.4,388.9,483.4z M481.4,483.4h66.8c3.2,0,6-2.4,6-5.9v-59c0-3.1-2.5-5.9-6-5.9h-66.8
		c-3.2,0-6,2.4-6,5.9v59C475.4,480.9,478.3,483.4,481.4,483.4z M295,399h66.8c3.2,0,6-2.8,6-5.9v-59c0-3.1-2.5-5.9-6-5.9H295
		c-3.2,0-6,2.4-6,5.9v59C289.4,396.2,291.9,399,295,399 M388.9,399h66.8c3.2,0,6-2.8,6-5.9v-59c0-3.1-2.5-5.9-6-5.9h-66.8
		c-3.2,0-6,2.4-6,5.9v59C383,396.2,385.4,399,388.9,399 M481.4,399h66.8c3.2,0,6-2.8,6-5.9v-59c0-3.1-2.8-5.9-6-5.9h-66.8
		c-3.2,0-6,2.4-6,5.9v59C475.4,396.2,478.3,399,481.4,399 M481.4,314.3h66.8c3.2,0,6-2.4,6-5.9v-59c0-3.1-2.8-5.9-6-5.9h-66.8
		c-3.2,0-6,2.4-6,5.9v59C475.4,311.5,478.3,314.3,481.4,314.3 M574.6,483.4h66.8c3.2,0,6-2.4,6-5.9v-59c0-3.1-2.5-5.9-6-5.9h-66.8
		c-3.2,0-6,2.4-6,5.9v59C569,480.9,571.5,483.4,574.6,483.4"/>
</g>
</svg>
