<?xml version="1.0" encoding="utf-8"?>
<!-- Generator: Adobe Illustrator 28.2.0, SVG Export Plug-In . SVG Version: 6.00 Build 0)  -->
<svg version="1.1" id="Calque_1" xmlns="http://www.w3.org/2000/svg" xmlns:xlink="http://www.w3.org/1999/xlink" x="0px" y="0px"
	 viewBox="0 0 1024 1024" style="enable-background:new 0 0 1024 1024;" xml:space="preserve">
<style type="text/css">
	.st0{fill:#FFFFFF;}
	.st1{fill:#5C6BC0;}
</style>
<ellipse class="st0" cx="512" cy="535" rx="359" ry="367.5"/>
<path class="st1" d="M512,142.2c-209.4,0-379.2,169.7-379.2,379.1c0,167.5,108.6,309.6,259.3,359.8c18.9,3.5,25.9-8.2,25.9-18.2
	c0-9-0.4-38.9-0.5-70.6c-105.5,22.9-127.7-44.7-127.7-44.7c-17.2-43.8-42.1-55.5-42.1-55.5c-34.4-23.5,2.6-23.1,2.6-23.1
	c38.1,2.7,58.1,39.1,58.1,39.1c33.8,58,88.7,41.2,110.3,31.5c3.4-24.5,13.2-41.2,24.1-50.7c-84.2-9.6-172.7-42.1-172.7-187.4
	c0-41.4,14.8-75.2,39.1-101.8c-3.9-9.5-16.9-48.1,3.7-100.3c0,0,31.9-10.2,104.3,38.9c30.2-8.4,62.7-12.6,94.9-12.8
	c32.2,0.2,64.7,4.4,95,12.8c72.4-49.1,104.2-38.9,104.2-38.9c20.6,52.2,7.6,90.8,3.7,100.3c24.3,26.6,39,60.4,39,101.8
	c0,145.6-88.7,177.7-173.1,187.1c13.6,11.8,25.7,34.8,25.7,70.2c0,50.7-0.4,91.6-0.4,104c0,10.1,6.8,21.9,26,18.2
	c150.6-50.2,259.1-192.3,259.1-359.7C891.2,311.9,721.4,142.2,512,142.2"/>
</svg>
