<?xml version="1.0" encoding="utf-8"?>
<!-- Generator: Adobe Illustrator 28.2.0, SVG Export Plug-In . SVG Version: 6.00 Build 0)  -->
<svg version="1.1" id="Calque_1" xmlns="http://www.w3.org/2000/svg" xmlns:xlink="http://www.w3.org/1999/xlink" x="0px" y="0px"
	 viewBox="0 0 1024 1024" style="enable-background:new 0 0 1024 1024;" xml:space="preserve">
<style type="text/css">
	.st0{fill:#FFFFFF;}
</style>
<path class="st0" d="M487.2,133c-1.6,0.1-6.8,0.7-11.5,1c-107.7,9.7-208.6,67.8-272.5,157.2c-35.6,49.7-58.3,106-66.9,165.7
	c-3,20.8-3.4,27-3.4,55.2s0.4,34.4,3.4,55.2c20.6,142.4,121.9,262,259.4,306.4c24.6,7.9,50.6,13.3,80.1,16.6
	c11.5,1.3,61.2,1.3,72.6,0c50.9-5.6,94.1-18.2,136.6-40c6.5-3.3,7.8-4.2,6.9-5c-0.6-0.4-28.4-37.7-61.8-82.8l-60.6-81.9l-76-112.5
	c-41.8-61.8-76.2-112.4-76.5-112.4c-0.3-0.1-0.6,49.9-0.7,110.9c-0.2,106.8-0.3,111.1-1.6,113.6c-1.9,3.6-3.4,5.1-6.5,6.7
	c-2.4,1.2-4.4,1.4-15.6,1.4h-12.8l-3.4-2.1c-2.2-1.4-3.9-3.3-5-5.4l-1.6-3.3l0.1-148.6l0.2-148.7l2.3-2.9c1.2-1.6,3.7-3.6,5.5-4.5
	c3-1.5,4.2-1.6,17-1.6c15.1,0,17.6,0.6,21.6,4.9c1.1,1.2,42.3,63.2,91.5,137.8s116.5,176.6,149.6,226.6l60,91l3-2
	c26.9-17.5,55.4-42.4,77.9-68.3c48-55.1,78.9-122.2,89.3-193.8c3-20.8,3.4-27,3.4-55.2s-0.4-34.4-3.4-55.2
	c-20.6-142.4-121.9-262-259.4-306.4c-24.2-7.9-50-13.3-78.9-16.5C542.3,133.2,493.3,132.4,487.2,133L487.2,133z M642.4,362.3
	c3.6,1.8,6.4,5.2,7.5,8.7c0.6,1.9,0.7,43.1,0.6,136l-0.2,133.3l-23.5-36l-23.6-36v-96.9c0-62.6,0.3-97.9,0.7-99.6
	c1.2-4.2,3.8-7.4,7.3-9.3c3-1.6,4.2-1.7,15.8-1.7C638,360.8,639.9,361,642.4,362.3L642.4,362.3z"/>
</svg>
