<?xml version="1.0" encoding="utf-8"?>
<!-- Generator: Adobe Illustrator 28.2.0, SVG Export Plug-In . SVG Version: 6.00 Build 0)  -->
<svg version="1.1" id="Calque_1" xmlns="http://www.w3.org/2000/svg" xmlns:xlink="http://www.w3.org/1999/xlink" x="0px" y="0px"
	 viewBox="0 0 1024 1024" style="enable-background:new 0 0 1024 1024;" xml:space="preserve">
<style type="text/css">
	.st0{fill:#FFFFFF;}
	.st1{fill-rule:evenodd;clip-rule:evenodd;fill:#FFFFFF;}
</style>
<path class="st0" d="M636.9,435.6H769V460h-52.4v128.3h-26.2V460h-53.5V435.6z M419.7,435.6V460H313.8v39.2H399v24.4h-85.1v40.3
	h105.9v24.4H287.6V460h0v-24.4H419.7z M485.7,435.7h-34.3l122.8,152.6h34.4l-61.4-76.3l61.3-76.3l-34.3,0.1L530,490.7L485.7,435.7z
	 M520.9,544.7l-17.2-21.3l-52.4,65.1h34.4L520.9,544.7L520.9,544.7z"/>
<path class="st1" d="M288.6,588.3l-123-152.7h-32.7v152.6H159v-120l96.6,120.1H288.6L288.6,588.3z"/>
<path class="st0" d="M774.9,587.3c-1.8,0-3.6-0.7-4.9-2c-1.4-1.3-2-2.9-2-4.8c0-1.9,0.7-3.4,2-4.8c1.3-1.3,3.1-2,4.9-2
	c1.8,0,3.5,0.7,4.8,2c1.4,1.3,2.1,2.9,2.1,4.8c0,1.2-0.3,2.4-1,3.4c-0.6,1-1.5,1.9-2.5,2.5C777.3,587,776.1,587.3,774.9,587.3z
	 M819.6,523h11.6v44.7c0,4.1-0.9,7.6-2.6,10.6c-1.8,3-4.2,5.2-7.3,6.8c-3.1,1.6-6.7,2.4-10.9,2.4c-3.8,0-7.2-0.7-10.2-2
	c-3-1.3-5.4-3.3-7.2-5.9c-1.8-2.6-2.6-5.9-2.6-9.8H802c0,1.7,0.4,3.2,1.2,4.4c0.7,1.2,1.8,2.2,3.1,2.9c1.3,0.7,2.9,1,4.6,1
	c1.9,0,3.5-0.4,4.8-1.2c1.3-0.8,2.3-1.9,3-3.5c0.7-1.5,1-3.4,1-5.6V523L819.6,523z M879,540.5c-0.3-2.7-1.5-4.8-3.7-6.3
	c-2.2-1.5-5-2.3-8.5-2.3c-2.4,0-4.5,0.4-6.3,1.1c-1.7,0.7-3.1,1.7-4,3c-0.9,1.2-1.4,2.7-1.4,4.2c0,1.3,0.3,2.5,0.9,3.4
	c0.6,1,1.5,1.8,2.5,2.5c1.1,0.7,2.3,1.3,3.6,1.7c1.3,0.5,2.6,0.8,3.9,1.2l6.1,1.5c2.4,0.5,4.8,1.3,7,2.3c2.2,0.9,4.2,2.1,6.1,3.6
	c1.8,1.4,3.2,3.2,4.3,5.2c1,2,1.6,4.4,1.6,7.2c0,3.7-1,7-2.9,9.8c-1.9,2.8-4.7,5-8.4,6.6c-3.6,1.6-8,2.4-13.2,2.4
	c-5,0-9.4-0.8-13-2.3c-3.7-1.5-6.6-3.8-8.6-6.7c-2.1-2.9-3.2-6.5-3.4-10.7h11.5c0.2,2.2,0.9,4,2.1,5.5c1.2,1.5,2.8,2.6,4.8,3.3
	c2,0.7,4.2,1.1,6.6,1.1c2.5,0,4.8-0.4,6.7-1.1c1.9-0.8,3.4-1.8,4.5-3.2c1.1-1.3,1.7-2.9,1.7-4.8c0-1.7-0.5-3-1.5-4.1
	c-1-1.1-2.3-2-4-2.7c-2-0.8-4-1.5-6.1-2l-7.3-1.9c-5.3-1.3-9.5-3.4-12.6-6.1c-3.1-2.7-4.6-6.4-4.6-11c0-3.7,1-7,3.1-9.8
	c2.1-2.8,4.9-5,8.4-6.6c3.6-1.6,7.6-2.3,12.1-2.3c4.6,0,8.6,0.8,12.1,2.3c3.5,1.6,6.2,3.7,8.1,6.5c2,2.8,3,5.9,3.1,9.5H879
	L879,540.5z"/>
</svg>
