<?xml version="1.0" encoding="utf-8"?>
<!-- Generator: Adobe Illustrator 28.2.0, SVG Export Plug-In . SVG Version: 6.00 Build 0)  -->
<svg version="1.1" id="Calque_1" xmlns="http://www.w3.org/2000/svg" xmlns:xlink="http://www.w3.org/1999/xlink" x="0px" y="0px"
	 viewBox="0 0 1024 1024" style="enable-background:new 0 0 1024 1024;" xml:space="preserve">
<style type="text/css">
	.st0{fill:#336791;}
	.st1{fill:#FFFFFF;}
</style>
<path d="M866.2,618.7c-4.6-13.8-16.5-23.4-31.9-25.7c-7.3-1.1-15.6-0.6-25.5,1.4c-17.2,3.5-30,4.9-39.3,5.2
	c35.1-59.3,63.7-127,80.2-190.7c26.6-103,12.4-149.9-4.2-171.2c-44-56.2-108.1-86.4-185.5-87.3c-41.3-0.5-77.5,7.6-96.4,13.5
	c-17.6-3.1-36.5-4.8-56.4-5.2c-37.2-0.6-70.1,7.5-98.2,24.2c-15.6-5.3-40.5-12.7-69.4-17.4c-67.8-11.1-122.5-2.5-162.5,25.8
	c-48.4,34.2-70.9,93.6-66.7,176.6c1.3,26.4,16.1,106.5,39.3,182.6c13.3,43.7,27.6,80,42.3,107.9c20.9,39.5,43.2,62.8,68.3,71.2
	c14,4.7,39.6,8,66.4-14.4c3.4,4.1,7.9,8.2,14,12c7.7,4.8,17,8.8,26.4,11.1c33.7,8.4,65.2,6.3,92.1-5.5c0.2,4.8,0.3,9.4,0.4,13.3
	c0.2,6.4,0.4,12.7,0.6,18.6c1.6,39.7,4.3,70.6,12.3,92.2c0.4,1.2,1,3,1.7,4.9c4,12.2,10.7,32.7,27.7,48.7
	c17.6,16.6,38.9,21.7,58.4,21.7c9.8,0,19.1-1.3,27.3-3c29.2-6.3,62.3-15.8,86.2-49.9c22.7-32.2,33.7-80.8,35.7-157.3
	c0.3-2.2,0.5-4.2,0.7-6.2l0.5-4l5.3,0.5l1.4,0.1c29.7,1.4,66-4.9,88.3-15.3C823,688.8,879.5,659,866.2,618.7"/>
<path class="st0" d="M815.4,626.6c-88.3,18.2-94.4-11.7-94.4-11.7c93.2-138.4,132.2-314,98.6-357c-91.8-117.2-250.6-61.8-253.3-60.4
	l-0.9,0.2c-17.4-3.6-37-5.8-58.9-6.1c-40-0.7-70.3,10.5-93.3,27.9c0,0-283.4-116.7-270.2,146.8c2.8,56.1,80.4,424.2,172.9,313
	c33.8-40.7,66.5-75,66.5-75c16.2,10.8,35.7,16.3,56,14.3l1.6-1.3c-0.5,5-0.3,10,0.6,15.8c-23.8,26.6-16.8,31.3-64.5,41.1
	c-48.2,9.9-19.9,27.6-1.4,32.2c22.4,5.6,74.3,13.5,109.3-35.5l-1.4,5.6c9.3,7.5,15.9,48.6,14.8,86c-1.1,37.3-1.8,62.9,5.5,83
	c7.4,20,14.7,65,77.3,51.6c52.3-11.2,79.4-40.3,83.2-88.8c2.7-34.5,8.7-29.4,9.1-60.2l4.9-14.6c5.6-46.7,0.9-61.8,33.1-54.8l7.8,0.7
	c23.7,1.1,54.8-3.8,73-12.3C830.8,649,854.1,618.6,815.4,626.6L815.4,626.6"/>
<path class="st1" d="M429.9,391.4c-8-1.1-15.2-0.1-18.8,2.7c-2,1.6-2.7,3.4-2.9,4.6c-0.5,3.3,1.8,6.9,3.3,8.8
	c4,5.3,9.8,8.9,15.6,9.7c0.8,0.1,1.7,0.2,2.5,0.2c9.6,0,18.4-7.5,19.2-13C449.7,397.4,439.7,392.8,429.9,391.4 M693.5,391.6
	c-0.8-5.4-10.4-7-19.6-5.7c-9.2,1.3-18.1,5.4-17.3,10.9c0.6,4.2,8.2,11.5,17.3,11.5c0.8,0,1.5-0.1,2.3-0.2c6-0.8,10.5-4.7,12.6-6.9
	C692,397.8,693.9,394.1,693.5,391.6"/>
<path class="st1" d="M844.8,624.5c-3.4-10.2-14.2-13.5-32.2-9.7c-53.5,11-72.6,3.4-78.9-1.2c41.6-63.3,75.7-139.8,94.2-211.2
	c8.7-33.8,13.6-65.2,14-90.8c0.4-28.1-4.4-48.7-14.2-61.4c-39.8-50.9-98.2-78.1-168.9-78.9c-48.6-0.5-89.7,11.9-97.6,15.4
	c-16.8-4.2-35-6.7-54.9-7.1c-36.5-0.6-68,8.1-94.1,26c-11.3-4.2-40.7-14.3-76.5-20.1c-62-10-111.2-2.4-146.4,22.5
	c-41.9,29.7-61.3,82.8-57.5,157.9c1.3,25.2,15.6,102.9,38.3,177.3c29.9,97.9,62.4,153.3,96.5,164.7c4,1.3,8.6,2.3,13.7,2.3
	c12.5,0,27.7-5.6,43.7-24.7c19.4-23.3,39.5-46,60.2-68.1c13.4,7.2,28.2,11.2,43.3,11.6c0,0.4,0.1,0.8,0.1,1.2
	c-2.6,3.1-5.1,6.2-7.6,9.4c-10.5,13.3-12.6,16-46.3,23c-9.6,2-35,7.2-35.4,25c-0.4,19.5,30.1,27.7,33.5,28.5
	c12.1,3,23.8,4.5,34.9,4.5c27,0,50.8-8.9,69.8-26.1c-0.6,69.4,2.3,137.9,10.6,158.7c6.8,17.1,23.5,58.8,76.2,58.8
	c7.7,0,16.2-0.9,25.6-2.9c55-11.8,78.9-36.1,88.1-89.7c4.9-28.6,13.4-97,17.4-133.7c8.4,2.6,19.3,3.8,31,3.8
	c24.4,0,52.7-5.2,70.3-13.4C815.5,666.8,851.3,644.2,844.8,624.5L844.8,624.5z M713.8,376.6c-0.2,10.8-1.7,20.7-3.3,30.9
	c-1.7,11-3.5,22.4-3.9,36.3c-0.4,13.5,1.2,27.5,2.9,41.1c3.3,27.4,6.7,55.6-6.4,83.4c-2.2-3.8-4.1-7.8-5.8-11.9
	c-1.6-3.9-5.2-10.3-10-19c-19-34.1-63.5-113.9-40.7-146.4C653.4,381.2,670.6,371.2,713.8,376.6L713.8,376.6z M661.5,193.1
	c63.3,1.4,113.5,25.1,148.9,70.4c27.2,34.8-2.8,193-89.5,329.5c-0.9-1.1-1.7-2.2-2.6-3.3l-1.1-1.4c22.4-37,18-73.6,14.1-106.1
	c-1.6-13.3-3.1-25.9-2.7-37.7c0.4-12.5,2.1-23.3,3.7-33.7c2-12.8,4-26.1,3.4-41.7c0.4-1.6,0.6-3.6,0.4-5.9
	c-1.4-15-18.5-59.8-53.4-100.4c-19.1-22.2-46.9-47-84.8-63.8C614.1,195.7,636.5,192.6,661.5,193.1L661.5,193.1z M307,671.3
	c-17.5,21.1-29.6,17-33.6,15.7c-25.9-8.6-56-63.4-82.5-150.3c-22.9-75.2-36.4-150.8-37.4-172c-3.3-67,12.9-113.8,48.3-138.9
	c57.6-40.9,152.3-16.4,190.4-4c-0.5,0.5-1.1,1-1.7,1.6c-62.5,63.1-61,170.9-60.8,177.4c0,2.5,0.2,6.1,0.5,11.1
	c1.1,18.1,3.1,51.9-2.3,90.1c-5,35.5,6,70.3,30,95.3c2.5,2.6,5.1,5,7.8,7.3C355,616.1,331.7,641.5,307,671.3L307,671.3z
	 M373.7,582.2c-19.4-20.2-28.2-48.3-24.2-77.2c5.6-40.4,3.6-75.5,2.4-94.4c-0.2-2.6-0.3-5-0.4-6.8c9.1-8.1,51.4-30.7,81.6-23.8
	c13.8,3.2,22.1,12.5,25.6,28.6c18,83.4,2.4,118.2-10.2,146.2c-2.6,5.8-5,11.2-7.1,16.8l-1.6,4.4c-4.1,11-7.9,21.2-10.3,31
	C409,606.9,389,598.1,373.7,582.2L373.7,582.2z M376.9,694.8c-6-1.5-11.4-4.1-14.6-6.3c2.7-1.2,7.4-2.9,15.6-4.6
	c39.6-8.2,45.7-13.9,59.1-30.9c3.1-3.9,6.5-8.3,11.3-13.7l0,0c7.2-8,10.4-6.7,16.4-4.2c4.8,2,9.5,8,11.4,14.7
	c0.9,3.1,1.9,9.1-1.4,13.7C446.7,702.6,406.1,702.1,376.9,694.8z M584.1,887.6c-48.4,10.4-65.6-14.3-76.9-42.6
	c-7.3-18.2-10.9-100.5-8.3-191.4c0-1.2-0.1-2.4-0.5-3.5c-0.3-2.2-0.8-4.3-1.4-6.4c-3.8-13.2-13-24.3-24.1-28.9
	c-4.4-1.8-12.5-5.2-22.2-2.7c2.1-8.5,5.7-18.1,9.5-28.5l1.6-4.4c1.8-4.9,4.1-10.1,6.6-15.5c13.2-29.2,31.2-69.3,11.6-159.8
	c-7.3-33.9-31.8-50.4-68.9-46.6c-22.2,2.3-42.6,11.3-52.7,16.4c-2.2,1.1-4.2,2.2-6,3.2c2.8-34.1,13.5-98,53.6-138.3
	c25.2-25.4,58.8-38,99.7-37.3c80.6,1.3,132.3,42.7,161.4,77.1c25.1,29.7,38.7,59.6,44.2,75.7c-40.8-4.2-68.6,3.9-82.7,24
	c-30.6,43.8,16.8,128.8,39.5,169.6c4.2,7.5,7.8,14,8.9,16.7c7.4,18,17,30,24,38.7c2.1,2.7,4.2,5.3,5.8,7.6
	c-12.4,3.6-34.6,11.8-32.6,53c-1.6,20.7-13.2,117.4-19.1,151.6C647.5,860.8,630.9,877.6,584.1,887.6L584.1,887.6z M786.4,656.2
	c-12.6,5.9-33.8,10.3-53.9,11.2c-22.2,1-33.5-2.5-36.2-4.7c-1.2-25.7,8.3-28.3,18.4-31.2c1.6-0.4,3.1-0.9,4.6-1.4
	c0.9,0.8,1.9,1.5,3.1,2.2c17.9,11.8,49.7,13.1,94.6,3.8l0.5-0.1C811.5,641.8,801.1,649.4,786.4,656.2L786.4,656.2z"/>
</svg>
