<?xml version="1.0" encoding="utf-8"?>
<!-- Generator: Adobe Illustrator 28.2.0, SVG Export Plug-In . SVG Version: 6.00 Build 0)  -->
<svg version="1.1" id="Calque_1" xmlns="http://www.w3.org/2000/svg" xmlns:xlink="http://www.w3.org/1999/xlink" x="0px" y="0px"
	 viewBox="0 0 1024 1024" style="enable-background:new 0 0 1024 1024;" xml:space="preserve">
<style type="text/css">
	.st0{fill:#06B6D4;}
</style>
<path class="st0" d="M512,284.6c-101.1,0-164.3,50.5-189.6,151.6c37.9-50.5,82.2-69.5,132.7-56.9c28.8,7.2,49.5,28.1,72.3,51.3
	c37.2,37.7,80.2,81.4,174.2,81.4c101.1,0,164.3-50.5,189.6-151.6c-37.9,50.5-82.1,69.5-132.7,56.9c-28.8-7.2-49.5-28.1-72.3-51.3
	C649,328.2,606,284.6,512,284.6L512,284.6z M322.4,512c-101.1,0-164.3,50.5-189.6,151.6c37.9-50.5,82.1-69.5,132.7-56.9
	c28.8,7.2,49.5,28.1,72.3,51.3C375,695.8,418,739.4,512,739.4c101.1,0,164.3-50.5,189.6-151.6c-37.9,50.5-82.2,69.5-132.7,56.9
	c-28.8-7.2-49.5-28.1-72.3-51.3C459.4,555.7,416.4,512,322.4,512L322.4,512z"/>
</svg>
