<?xml version="1.0" encoding="utf-8"?>
<!-- Generator: Adobe Illustrator 28.2.0, SVG Export Plug-In . SVG Version: 6.00 Build 0)  -->
<svg version="1.1" id="Calque_1" xmlns="http://www.w3.org/2000/svg" xmlns:xlink="http://www.w3.org/1999/xlink" x="0px" y="0px"
	 viewBox="0 0 1024 1024" style="enable-background:new 0 0 1024 1024;" xml:space="preserve">
<style type="text/css">
	.st0{fill:#2489CA;}
	.st1{fill:#1070B3;}
	.st2{fill:#0877B9;}
	.st3{fill:#3C99D4;}
</style>
<path class="st0" d="M133.3,402.3c0,0-18.5-13.3,3.7-31.1l51.6-46.2c0,0,14.8-15.5,30.4-2l476.5,360.8v173c0,0-0.2,27.2-35.1,24.2
	L133.3,402.3z"/>
<path class="st1" d="M256.1,513.8L133.3,625.4c0,0-12.6,9.4,0,26.2l57,51.9c0,0,13.5,14.5,33.6-2l130.2-98.7L256.1,513.8z"/>
<path class="st2" d="M471.7,514.7l225.2-172l-1.5-172.1c0,0-9.6-37.6-41.7-18L354.1,425.4L471.7,514.7z"/>
<path class="st3" d="M660.4,881.2c13.1,13.4,28.9,9,28.9,9l175.5-86.5c22.5-15.3,19.3-34.3,19.3-34.3V252.8
	c0-22.7-23.2-30.6-23.2-30.6l-152.1-73.3c-33.2-20.5-55,3.7-55,3.7s28-20.2,41.7,18v683c0,4.7-1,9.3-3,13.5
	c-4,8.1-12.7,15.6-33.6,12.5L660.4,881.2z"/>
</svg>
